HIERARCHY
ROOT joint_Root
{
	OFFSET 0.0 0.0 0.0
	CHANNELS 6 Xposition Yposition Zposition Zrotation Xrotation Yrotation 
	JOINT Hips
	{
		OFFSET 4.5925 91.4895 -427.239
		CHANNELS 6 Xposition Yposition Zposition Zrotation Xrotation Yrotation 
		JOINT Spine
		{
			OFFSET 15.7357 0.0 0.0
			CHANNELS 6 Xposition Yposition Zposition Zrotation Xrotation Yrotation 
			JOINT Chest
			{
				OFFSET 8.98455 -0.406207 0.0
				CHANNELS 6 Xposition Yposition Zposition Zrotation Xrotation Yrotation 
				JOINT Neck
				{
					OFFSET 16.3773 0.0 0.0
					CHANNELS 6 Xposition Yposition Zposition Zrotation Xrotation Yrotation 
					JOINT Head
					{
						OFFSET 6.45672 0.0 0.0
						CHANNELS 6 Xposition Yposition Zposition Zrotation Xrotation Yrotation 
						End Site
						{
							OFFSET 0.0 0.0 0.0
						}
					}
				}
				JOINT Shoulder_L
				{
					OFFSET 12.9942 -0.242716 4.98039
					CHANNELS 6 Xposition Yposition Zposition Zrotation Xrotation Yrotation 
					JOINT UpperArm_L
					{
						OFFSET 5.34809 0.0 0.0
						CHANNELS 6 Xposition Yposition Zposition Zrotation Xrotation Yrotation 
						JOINT LowerArm_L
						{
							OFFSET 24.3286 1.87007e-05 0.0
							CHANNELS 6 Xposition Yposition Zposition Zrotation Xrotation Yrotation 
							JOINT Hand_L
							{
								OFFSET 22.2916 0.0 0.0
								CHANNELS 6 Xposition Yposition Zposition Zrotation Xrotation Yrotation 
								End Site
								{
									OFFSET 0.0 0.0 0.0
								}
							}
						}
					}
				}
				JOINT Shoulder_R
				{
					OFFSET 12.9945 -0.242716 -4.98039
					CHANNELS 6 Xposition Yposition Zposition Zrotation Xrotation Yrotation 
					JOINT UpperArm_R
					{
						OFFSET -5.34813 0.0 0.0
						CHANNELS 6 Xposition Yposition Zposition Zrotation Xrotation Yrotation 
						JOINT LowerArm_R
						{
							OFFSET -24.3289 0.000322201 0.0
							CHANNELS 6 Xposition Yposition Zposition Zrotation Xrotation Yrotation 
							JOINT Hand_R
							{
								OFFSET -22.2915 -0.000108084 0.0
								CHANNELS 6 Xposition Yposition Zposition Zrotation Xrotation Yrotation 
								End Site
								{
									OFFSET 0.0 0.0 0.0
								}
							}
						}
					}
				}
			}
		}
		JOINT UpperLeg_L
		{
			OFFSET -2.19248 -6.46944 0.0
			CHANNELS 6 Xposition Yposition Zposition Zrotation Xrotation Yrotation 
			JOINT LowerLeg_L
			{
				OFFSET 39.0811 0.0 -1.23785e-05
				CHANNELS 6 Xposition Yposition Zposition Zrotation Xrotation Yrotation 
				JOINT Foot_L
				{
					OFFSET 40.9854 0.0 -1.26872e-05
					CHANNELS 6 Xposition Yposition Zposition Zrotation Xrotation Yrotation 
					JOINT Toes_L
					{
						OFFSET 11.7543 0.0 0.0
						CHANNELS 6 Xposition Yposition Zposition Zrotation Xrotation Yrotation 
						End Site
						{
							OFFSET 0.0 0.0 0.0
						}
					}
				}
			}
		}
		JOINT UpperLeg_R
		{
			OFFSET -2.19251 6.46944 0.0
			CHANNELS 6 Xposition Yposition Zposition Zrotation Xrotation Yrotation 
			JOINT LowerLeg_R
			{
				OFFSET -39.0811 -0.00228153 -0.0401928
				CHANNELS 6 Xposition Yposition Zposition Zrotation Xrotation Yrotation 
				JOINT Foot_R
				{
					OFFSET -40.9854 0.0 0.0
					CHANNELS 6 Xposition Yposition Zposition Zrotation Xrotation Yrotation 
					JOINT Toes_R
					{
						OFFSET -11.7543 0.0 0.0
						CHANNELS 6 Xposition Yposition Zposition Zrotation Xrotation Yrotation 
						End Site
						{
							OFFSET 0.0 0.0 0.0
						}
					}
				}
			}
		}
	}
}
MOTION
Frames:	4
Frame Time:	0.0333333
0.000000 0.000000 0.000000 0.000000 0.000000 -0.000000 -8.607120 89.002700 -5.538860 83.400000 -2.106220 17.729800 15.735700 0.000005 -0.000001 85.970800 80.911000 -83.806100 8.984550 -0.406207 -0.000000 10.395600 -1.218990 4.437840 16.377300 -0.000001 -0.000001 27.981000 -5.882130 3.452900 6.456720 -0.000001 -0.000000 24.619900 -8.719990 0.588491 12.994200 -0.242716 4.980390 -90.398000 1.538690 -75.495600 5.348090 -0.000007 -0.000001 -67.545000 38.535200 -14.887900 24.328600 0.000019 0.000005 8.148860 22.249300 -20.715400 22.291600 -0.000001 0.000005 8.034220 5.270430 0.885235 12.994500 -0.242716 -4.980390 88.642400 10.021300 -82.244900 -5.348130 -0.000001 -0.000004 -65.332900 26.179800 -5.779980 -24.328900 0.000322 -0.000009 1.388820 5.215730 -14.943600 -22.291500 -0.000108 -0.000004 14.577600 5.324480 -0.624923 -2.192480 -6.469440 -0.000000 -162.481000 -6.639160 -1.597990 39.081100 -0.000007 -0.000012 -0.331670 0.391213 40.291900 40.985400 -0.000006 -0.000013 -5.682420 4.748190 -69.983900 11.754300 -0.000000 0.000003 -0.000052 -0.000581 -16.600100 -2.192510 6.469440 -0.000001 -175.394000 22.803600 -176.270000 -39.081100 -0.002282 -0.040193 -0.026507 0.042918 34.772500 -40.985400 0.000008 0.000006 8.786640 7.110660 -71.739700 -11.754300 -0.000006 -0.000006 -0.003671 -0.047976 -18.524500
0.000000 0.000000 0.000000 0.000000 0.000000 -0.000000 -8.450630 88.997500 -5.674520 83.490700 -1.951590 17.720200 15.735700 0.000005 -0.000001 85.787700 80.925800 -83.708000 8.984550 -0.406207 -0.000000 10.361900 -1.277020 4.272620 16.377300 -0.000001 -0.000001 27.887900 -5.885830 3.365040 6.456720 -0.000001 -0.000000 24.457400 -8.730480 0.533728 12.994200 -0.242716 4.980390 -90.380900 1.474960 -75.518900 5.348090 -0.000007 -0.000001 -66.992800 35.966400 -15.156800 24.328600 0.000019 0.000005 7.503810 23.569700 -18.232500 22.291600 -0.000001 0.000005 8.823830 5.235020 1.823850 12.994500 -0.242716 -4.980390 88.673100 9.847300 -82.287100 -5.348130 -0.000001 -0.000004 -64.399100 25.367100 -5.709570 -24.328900 0.000322 -0.000009 1.102460 4.266620 -14.515400 -22.291500 -0.000108 -0.000004 13.135000 5.316000 -0.380884 -2.192480 -6.469440 -0.000000 -162.685000 -6.757410 -1.789810 39.081100 -0.000007 -0.000012 -0.332071 0.390535 40.375100 40.985400 -0.000006 -0.000013 -5.492890 4.887530 -69.916300 11.754300 -0.000000 0.000003 -0.000040 -0.000468 -16.595800 -2.192510 6.469440 -0.000001 -175.370000 22.376100 -176.555000 -39.081100 -0.002282 -0.040193 -0.004426 0.011045 34.941000 -40.985400 0.000008 0.000006 8.486240 6.507390 -71.623600 -11.754300 -0.000006 -0.000006 -0.004634 -0.057879 -18.927800
0.000000 0.000000 0.000000 0.000000 0.000000 -0.000000 -8.294200 88.989700 -5.766730 83.586300 -1.896370 17.735700 15.735700 0.000005 -0.000001 85.736900 80.956200 -83.727500 8.984550 -0.406207 -0.000000 10.299400 -1.291240 4.132830 16.377300 -0.000001 -0.000001 27.801500 -5.892730 3.251260 6.456720 -0.000001 -0.000000 24.336900 -8.741850 0.360818 12.994200 -0.242716 4.980390 -90.372100 1.435710 -75.469500 5.348090 -0.000007 -0.000001 -66.697800 33.113100 -15.112100 24.328600 0.000019 0.000005 6.870970 24.411400 -16.254700 22.291600 -0.000001 0.000005 9.316070 5.197420 2.783150 12.994500 -0.242716 -4.980390 88.708100 9.502800 -82.221900 -5.348130 -0.000001 -0.000004 -63.986400 23.600300 -5.550660 -24.328900 0.000322 -0.000009 0.945625 3.696800 -14.374400 -22.291500 -0.000108 -0.000004 12.399300 5.308390 -0.164187 -2.192480 -6.469440 -0.000000 -162.882000 -6.851200 -1.888660 39.081100 -0.000007 -0.000012 -0.331540 0.388823 40.454200 40.985400 -0.000006 -0.000013 -5.342700 4.946920 -69.898300 11.754300 -0.000000 0.000003 -0.000043 -0.000499 -16.597000 -2.192510 6.469440 -0.000001 -175.353000 21.890600 -176.769000 -39.081100 -0.002282 -0.040193 0.012541 -0.013157 35.108500 -40.985400 0.000008 0.000006 8.197920 5.921410 -71.541300 -11.754300 -0.000006 -0.000006 -0.006281 -0.073363 -19.559100
0.000000 0.000000 0.000000 0.000000 0.000000 -0.000000 -8.132690 88.987400 -5.804150 83.693500 -1.874610 17.884900 15.735700 0.000005 -0.000001 85.714200 80.961800 -83.770200 8.984550 -0.406207 -0.000000 10.286900 -1.299190 4.002600 16.377300 -0.000001 -0.000001 27.824200 -5.883960 3.219030 6.456720 -0.000001 -0.000000 24.224800 -8.736250 0.107094 12.994200 -0.242716 4.980390 -90.328700 1.257060 -75.345500 5.348090 -0.000007 -0.000001 -66.655300 30.370100 -14.907300 24.328600 0.000019 0.000005 6.335060 24.826100 -14.811000 22.291600 -0.000001 0.000005 9.639180 5.173250 3.381370 12.994500 -0.242716 -4.980390 88.715100 9.181070 -81.997800 -5.348130 -0.000001 -0.000004 -63.594700 21.345800 -5.556440 -24.328900 0.000322 -0.000009 0.971089 3.769970 -14.470700 -22.291500 -0.000108 -0.000004 12.214700 5.311370 -0.248746 -2.192480 -6.469440 -0.000000 -163.088000 -6.890470 -1.789500 39.081100 -0.000007 -0.000012 -0.331452 0.388051 40.502900 40.985400 -0.000006 -0.000013 -5.212060 4.923440 -69.915700 11.754300 -0.000000 0.000003 -0.000040 -0.000466 -16.595700 -2.192510 6.469440 -0.000001 -175.502000 21.575600 -176.748000 -39.081100 -0.002282 -0.040193 0.031269 -0.039594 35.246200 -40.985400 0.000008 0.000006 7.972720 5.594580 -71.511900 -11.754300 -0.000006 -0.000006 -0.007592 -0.084671 -20.020600
